<?xml version="1.0" encoding="utf-8"?>
<!-- Generator: Adobe Illustrator 16.0.0, SVG Export Plug-In . SVG Version: 6.00 Build 0)  -->
<!DOCTYPE svg PUBLIC "-//W3C//DTD SVG 1.1//EN" "http://www.w3.org/Graphics/SVG/1.1/DTD/svg11.dtd">
<svg version="1.1" id="Layer_1" xmlns="http://www.w3.org/2000/svg" xmlns:xlink="http://www.w3.org/1999/xlink" x="0px" y="0px"
	 width="294.4px" height="294.4px" viewBox="0 0 294.4 294.4" enable-background="new 0 0 294.4 294.4" xml:space="preserve">
<g transform="translate(0,-952.36218)">
	<path fill="#EE3329" d="M27.8,952.362c-4.685,0.491-8.625,4.89-8.6,9.6v9.6H9.6c-5.026,0-9.6,4.574-9.6,9.6v256
		c0,5.026,4.574,9.6,9.6,9.601h256c5.025-0.001,9.6-4.574,9.6-9.601v-9.6h9.6c5.027-0.001,9.6-4.574,9.601-9.6v-256
		c-0.001-5.026-4.573-9.599-9.601-9.6C199.156,952.362,113.373,952.362,27.8,952.362z M19.2,990.763c78.934,0,157.867,0,236.8,0
		c0,78.886,0,157.995,0,236.8H19.2V990.763z M88.8,1008.762c-17.51,9.971-29.272,27.354-32.1,48.4
		c-2.828,21.046,2.786,45.481,17.9,71.301l17.7,30.1c15.114,25.818,33.782,42.823,53.6,50.9c19.818,8.076,40.79,6.77,58.3-3.2
		c11.297-9.817,17.338-21.994,12-32.4c-10.039-11.168-21.384-22.508-30.5-31.899c-8.314-7.438-20.396-7.387-28.8-2.601
		c-11.739,6.343-21.974,1.051-27.4-8l-12.6-21.5c-6.744-11.153-2.412-21.741,6.6-27c8.405-4.786,14.589-15.309,12.2-26.2
		c-5.648-14.228-7.726-29.921-12.8-42.1C110.891,1004.207,98.902,1003.269,88.8,1008.762L88.8,1008.762z"/>
</g>
</svg>
