<?xml version="1.0" encoding="utf-8"?>
<!-- Generator: Adobe Illustrator 16.0.0, SVG Export Plug-In . SVG Version: 6.00 Build 0)  -->
<!DOCTYPE svg PUBLIC "-//W3C//DTD SVG 1.1//EN" "http://www.w3.org/Graphics/SVG/1.1/DTD/svg11.dtd">
<svg version="1.1" id="Capa_1" xmlns="http://www.w3.org/2000/svg" xmlns:xlink="http://www.w3.org/1999/xlink" x="0px" y="0px"
	 width="20px" height="20px" viewBox="0 0 20 20" enable-background="new 0 0 20 20" xml:space="preserve">
<g>
	<g>
		<g>
			<path fill="#EE3128" d="M15.238,5.405c0-2.907-2.346-5.265-5.239-5.265c-2.893,0-5.239,2.358-5.239,5.265
				c0,4.166,5.239,10.331,5.239,10.331S15.238,9.551,15.238,5.405z M7.415,5.09c0-1.434,1.157-2.596,2.584-2.596
				c1.426,0,2.583,1.162,2.583,2.596c0,1.436-1.157,2.599-2.583,2.599C8.572,7.688,7.415,6.525,7.415,5.09z"/>
			<ellipse fill="#EE3128" cx="9.999" cy="5.092" rx="1.271" ry="1.277"/>
			<path fill="#EE3128" d="M12.962,13.904c-0.429,0.621-0.828,1.16-1.162,1.596c3.312,0.199,5.479,0.918,6.286,1.453
				c-0.943,0.625-3.754,1.508-8.086,1.508s-7.141-0.883-8.087-1.508c0.807-0.535,2.975-1.252,6.282-1.453
				c-0.334-0.436-0.736-0.975-1.164-1.595C2.958,14.311,0,15.521,0,16.953c0,1.76,4.477,3.188,10,3.188c5.521,0,10-1.428,10-3.188
				C20.001,15.521,17.039,14.311,12.962,13.904z"/>
		</g>
	</g>
</g>
</svg>
