<?xml version="1.0" encoding="utf-8"?>
<!-- Generator: Adobe Illustrator 16.0.0, SVG Export Plug-In . SVG Version: 6.00 Build 0)  -->
<!DOCTYPE svg PUBLIC "-//W3C//DTD SVG 1.1//EN" "http://www.w3.org/Graphics/SVG/1.1/DTD/svg11.dtd">
<svg version="1.1" id="Layer_1" xmlns="http://www.w3.org/2000/svg" xmlns:xlink="http://www.w3.org/1999/xlink" x="0px" y="0px"
	 width="256px" height="192px" viewBox="0 0 256 192" enable-background="new 0 0 256 192" xml:space="preserve">
<g>
	<path fill="#EE3329" d="M142.399,98.561L249.28,6.08C245.44,2.24,240,0,234.239,0H21.76C16,0,10.88,2.24,7.04,5.76l106.88,92.801
		C121.92,105.6,134.079,105.92,142.399,98.561z"/>
	<path fill="#EE3329" d="M256,21.76c0-1.28,0-2.88-0.32-4.16l-104.96,90.56c-6.4,5.76-14.72,8.64-22.72,8.64s-16-2.88-22.72-8.64
		L0.32,17.28C0,18.88,0,20.16,0,21.76v148.48C0,182.08,9.6,192,21.76,192h212.479c11.84,0,21.761-9.6,21.761-21.76V21.76z"/>
</g>
</svg>
