<?xml version="1.0" encoding="utf-8"?>
<!-- Generator: Adobe Illustrator 16.0.0, SVG Export Plug-In . SVG Version: 6.00 Build 0)  -->
<!DOCTYPE svg PUBLIC "-//W3C//DTD SVG 1.1//EN" "http://www.w3.org/Graphics/SVG/1.1/DTD/svg11.dtd">
<svg version="1.1" id="Capa_1" xmlns="http://www.w3.org/2000/svg" xmlns:xlink="http://www.w3.org/1999/xlink" x="0px" y="0px"
	 width="171.707px" height="320px" viewBox="74.146 80 171.707 320" enable-background="new 74.146 80 171.707 320"
	 xml:space="preserve">
<g>
	<g>
		<path fill="#EE3128" d="M229.201,80H90.799c-9.182,0-16.653,7.196-16.653,16.037v287.937c0,8.83,7.465,16.026,16.653,16.026
			h138.402c9.188,0,16.652-7.195,16.652-16.026V96.032C245.854,87.19,238.388,80,229.201,80z M135.84,104.921h48.32v3.389h-48.32
			C135.84,108.311,135.84,104.921,135.84,104.921z M160.002,383.215c-5.138,0-9.314-4.176-9.314-9.309
			c0-5.128,4.176-9.298,9.314-9.298s9.314,4.176,9.314,9.298C169.316,379.039,165.141,383.215,160.002,383.215z M234.487,348.368
			H85.535V127.604h148.953V348.368z"/>
	</g>
</g>
</svg>
